<svg width="23" height="20" viewBox="0 0 23 20" fill="none" xmlns="http://www.w3.org/2000/svg">
<g clip-path="url(#clip0_136_4151)">
<path d="M11.4322 3.29536L11.7648 3.79464L12.0978 3.29565C13.9494 0.5212 16.5662 -0.0561384 18.7044 0.742104C20.8641 1.5484 22.6 3.78122 22.6 6.77712C22.6 7.84371 22.0197 9.12123 21.0548 10.4918C20.0987 11.8498 18.8062 13.2422 17.4712 14.5276C16.1381 15.8113 14.7728 16.9788 13.677 17.888C13.2833 18.2146 12.9258 18.5068 12.6164 18.7598C12.4948 18.8592 12.3806 18.9525 12.2745 19.0395C12.0772 19.2013 11.9033 19.3449 11.7631 19.4646C11.6172 19.3431 11.4353 19.1979 11.2292 19.035C11.0764 18.9142 10.9082 18.7821 10.7258 18.6389C10.4394 18.414 10.1181 18.1617 9.76649 17.8826C8.62094 16.9729 7.18912 15.8051 5.78934 14.521C4.38762 13.2351 3.02888 11.8424 2.02344 10.4841C1.00775 9.11201 0.4 7.83736 0.4 6.77712C0.4 3.77278 2.25466 1.53353 4.5559 0.726754C6.84135 -0.0744824 9.58992 0.529747 11.4322 3.29536Z" stroke="#5F165D" stroke-width="0.8"/>
</g>
<defs>
<clipPath id="clip0_136_4151">
<rect width="23" height="20" fill="white"/>
</clipPath>
</defs>
</svg>
