<svg width="18" height="15" viewBox="0 0 18 15" fill="none" xmlns="http://www.w3.org/2000/svg">
<g clip-path="url(#clip0_136_4175)">
<path d="M8.43549 2.52601L8.76871 3.02937L9.10237 2.52629C10.4583 0.481925 12.3593 0.0693952 13.9047 0.649975C15.4726 1.23895 16.7429 2.87468 16.7429 5.08284C16.7429 5.85159 16.3252 6.78875 15.609 7.81226C14.9016 8.82332 13.9433 9.86254 12.9505 10.8245C11.9594 11.7848 10.9439 12.6586 10.1281 13.3398C9.83496 13.5845 9.569 13.8033 9.33845 13.9929C9.2477 14.0675 9.16243 14.1377 9.08315 14.2031C8.96615 14.2996 8.85917 14.3884 8.76664 14.4668C8.66944 14.3867 8.5567 14.2963 8.43373 14.1985C8.31922 14.1075 8.19364 14.0082 8.05762 13.9008C7.84448 13.7324 7.6057 13.5437 7.34367 13.3344C6.49058 12.6527 5.42553 11.7786 4.38481 10.8179C3.34217 9.85543 2.33469 8.81584 1.59073 7.80454C0.836698 6.77955 0.4 5.84527 0.4 5.08284C0.4 2.87222 1.75494 1.23014 3.43014 0.639175C5.08897 0.0539868 7.08803 0.490574 8.43549 2.52601Z" stroke="#5F165D" stroke-width="0.8"/>
</g>
<defs>
<clipPath id="clip0_136_4175">
<rect width="17.1429" height="15" fill="white"/>
</clipPath>
</defs>
</svg>
