<svg width="65" height="11" viewBox="0 0 65 11" fill="none" xmlns="http://www.w3.org/2000/svg">
<path d="M4.7709 1.04936C4.9878 0.395006 5.92987 0.395006 6.14605 1.04936L6.91966 3.38825C6.96693 3.53069 7.05881 3.65481 7.18217 3.74285C7.30553 3.8309 7.45405 3.87837 7.60652 3.87848H10.1096C10.8101 3.87848 11.1008 4.75947 10.5347 5.16444L8.51027 6.60956C8.38666 6.69768 8.29462 6.82199 8.24734 6.96469C8.20006 7.10738 8.19998 7.26112 8.2471 7.40387L9.02071 9.74276C9.23761 10.3971 8.47484 10.942 7.90729 10.5371L5.88288 9.09196C5.75939 9.00387 5.61071 8.95642 5.45811 8.95642C5.30552 8.95642 5.15683 9.00387 5.03335 9.09196L3.00894 10.5371C2.44211 10.942 1.68006 10.3971 1.89624 9.74276L2.66985 7.40387C2.71697 7.26112 2.71689 7.10738 2.66961 6.96469C2.62233 6.82199 2.53029 6.69768 2.40668 6.60956L0.382995 5.16515C-0.183116 4.76018 0.108254 3.87919 0.808121 3.87919H3.31043C3.46302 3.87923 3.61171 3.83183 3.73522 3.74377C3.85872 3.65571 3.95071 3.53152 3.99801 3.38896L4.77162 1.05007L4.7709 1.04936Z" fill="#5F165D"/>
<path d="M45.0658 1.04936C45.2827 0.395006 46.2248 0.395006 46.441 1.04936L47.2146 3.38825C47.2619 3.53069 47.3537 3.65481 47.4771 3.74285C47.6005 3.8309 47.749 3.87837 47.9014 3.87848H50.4045C51.1051 3.87848 51.3957 4.75947 50.8296 5.16444L48.8052 6.60956C48.6816 6.69768 48.5895 6.82199 48.5423 6.96469C48.495 7.10738 48.4949 7.26112 48.542 7.40387L49.3156 9.74276C49.5325 10.3971 48.7698 10.942 48.2022 10.5371L46.1778 9.09196C46.0543 9.00387 45.9056 8.95642 45.753 8.95642C45.6004 8.95642 45.4518 9.00387 45.3283 9.09196L43.3039 10.5371C42.737 10.942 41.975 10.3971 42.1912 9.74276L42.9648 7.40387C43.0119 7.26112 43.0118 7.10738 42.9645 6.96469C42.9173 6.82199 42.8252 6.69768 42.7016 6.60956L40.6779 5.16515C40.1118 4.76018 40.4032 3.87919 41.103 3.87919H43.6054C43.7579 3.87923 43.9066 3.83183 44.0301 3.74377C44.1536 3.65571 44.2456 3.53152 44.2929 3.38896L45.0665 1.05007L45.0658 1.04936Z" fill="#5F165D"/>
<path d="M58.4975 1.04936C58.7144 0.395006 59.6564 0.395006 59.8726 1.04936L60.6462 3.38825C60.6935 3.53069 60.7854 3.65481 60.9087 3.74285C61.0321 3.8309 61.1806 3.87837 61.3331 3.87848H63.8361C64.5367 3.87848 64.8274 4.75947 64.2612 5.16444L62.2368 6.60956C62.1132 6.69768 62.0212 6.82199 61.9739 6.96469C61.9266 7.10738 61.9265 7.26112 61.9737 7.40387L62.7473 9.74276C62.9642 10.3971 62.2014 10.942 61.6339 10.5371L59.6094 9.09196C59.486 9.00387 59.3373 8.95642 59.1847 8.95642C59.0321 8.95642 58.8834 9.00387 58.7599 9.09196L56.7355 10.5371C56.1687 10.942 55.4066 10.3971 55.6228 9.74276L56.3964 7.40387C56.4435 7.26112 56.4435 7.10738 56.3962 6.96469C56.3489 6.82199 56.2569 6.69768 56.1332 6.60956L54.1096 5.16515C53.5434 4.76018 53.8348 3.87919 54.5347 3.87919H57.037C57.1896 3.87923 57.3383 3.83183 57.4618 3.74377C57.5853 3.65571 57.6773 3.53152 57.7246 3.38896L58.4982 1.05007L58.4975 1.04936Z" fill="#5F165D"/>
<path d="M31.6342 1.04936C31.8511 0.395006 32.7932 0.395006 33.0093 1.04936L33.7829 3.38825C33.8302 3.53069 33.9221 3.65481 34.0454 3.74285C34.1688 3.8309 34.3173 3.87837 34.4698 3.87848H36.9728C37.6734 3.87848 37.9641 4.75947 37.398 5.16444L35.3736 6.60956C35.2499 6.69768 35.1579 6.82199 35.1106 6.96469C35.0633 7.10738 35.0633 7.26112 35.1104 7.40387L35.884 9.74276C36.1009 10.3971 35.3381 10.942 34.7706 10.5371L32.7462 9.09196C32.6227 9.00387 32.474 8.95642 32.3214 8.95642C32.1688 8.95642 32.0201 9.00387 31.8966 9.09196L29.8722 10.5371C29.3054 10.942 28.5433 10.3971 28.7595 9.74276L29.5331 7.40387C29.5803 7.26112 29.5802 7.10738 29.5329 6.96469C29.4856 6.82199 29.3936 6.69768 29.27 6.60956L27.2463 5.16515C26.6802 4.76018 26.9715 3.87919 27.6714 3.87919H30.1737C30.3263 3.87923 30.475 3.83183 30.5985 3.74377C30.722 3.65571 30.814 3.53152 30.8613 3.38896L31.6349 1.05007L31.6342 1.04936Z" fill="#5F165D"/>
<path d="M18.2025 1.04936C18.4194 0.395006 19.3615 0.395006 19.5777 1.04936L20.3513 3.38825C20.3986 3.53069 20.4904 3.65481 20.6138 3.74285C20.7372 3.8309 20.8857 3.87837 21.0382 3.87848H23.5412C24.2418 3.87848 24.5324 4.75947 23.9663 5.16444L21.9419 6.60956C21.8183 6.69768 21.7263 6.82199 21.679 6.96469C21.6317 7.10738 21.6316 7.26112 21.6787 7.40387L22.4524 9.74276C22.6693 10.3971 21.9065 10.942 21.3389 10.5371L19.3145 9.09196C19.191 9.00387 19.0424 8.95642 18.8898 8.95642C18.7372 8.95642 18.5885 9.00387 18.465 9.09196L16.4406 10.5371C15.8737 10.942 15.1117 10.3971 15.3279 9.74276L16.1015 7.40387C16.1486 7.26112 16.1485 7.10738 16.1013 6.96469C16.054 6.82199 15.9619 6.69768 15.8383 6.60956L13.8146 5.16515C13.2485 4.76018 13.5399 3.87919 14.2398 3.87919H16.7421C16.8947 3.87923 17.0434 3.83183 17.1669 3.74377C17.2904 3.65571 17.3823 3.53152 17.4297 3.38896L18.2033 1.05007L18.2025 1.04936Z" fill="#5F165D"/>
</svg>
