<svg width="19" height="16" viewBox="0 0 19 16" fill="none" xmlns="http://www.w3.org/2000/svg">
<path d="M18.9457 7.75024L16.91 2.96686C16.8581 2.84335 16.7712 2.73796 16.6601 2.66384C16.5491 2.58971 16.4189 2.55013 16.2857 2.55002H14.25V1.18334C14.25 1.00211 14.1785 0.828297 14.0513 0.700146C13.924 0.571995 13.7514 0.5 13.5714 0.5H0.678571C0.498603 0.5 0.326006 0.571995 0.198749 0.700146C0.0714921 0.828297 0 1.00211 0 1.18334V12.8001C0 12.9814 0.0714921 13.1552 0.198749 13.2833C0.326006 13.4115 0.498603 13.4835 0.678571 13.4835H2.13071C2.28698 14.0625 2.62811 14.5737 3.10148 14.9381C3.57484 15.3025 4.15414 15.5 4.75 15.5C5.34586 15.5 5.92516 15.3025 6.39852 14.9381C6.87189 14.5737 7.21302 14.0625 7.36929 13.4835H11.6307C11.787 14.0625 12.1281 14.5737 12.6015 14.9381C13.0748 15.3025 13.6541 15.5 14.25 15.5C14.8459 15.5 15.4252 15.3025 15.8985 14.9381C16.3719 14.5737 16.713 14.0625 16.8693 13.4835H18.3214C18.5014 13.4835 18.674 13.4115 18.8013 13.2833C18.9285 13.1552 19 12.9814 19 12.8001V8.01674C18.9998 7.92514 18.9814 7.83451 18.9457 7.75024ZM4.75 14.1668C4.48158 14.1668 4.21919 14.0866 3.99601 13.9365C3.77283 13.7863 3.59888 13.5729 3.49616 13.3231C3.39344 13.0734 3.36657 12.7986 3.41893 12.5335C3.4713 12.2684 3.60056 12.0249 3.79036 11.8337C3.98015 11.6426 4.22197 11.5124 4.48523 11.4597C4.74849 11.407 5.02137 11.434 5.26936 11.5375C5.51734 11.6409 5.7293 11.8161 5.87842 12.0408C6.02755 12.2656 6.10714 12.5298 6.10714 12.8001C6.10714 13.1626 5.96416 13.5102 5.70964 13.7665C5.45513 14.0228 5.10994 14.1668 4.75 14.1668ZM14.25 14.1668C13.9816 14.1668 13.7192 14.0866 13.496 13.9365C13.2728 13.7863 13.0989 13.5729 12.9962 13.3231C12.8934 13.0734 12.8666 12.7986 12.9189 12.5335C12.9713 12.2684 13.1006 12.0249 13.2904 11.8337C13.4802 11.6426 13.722 11.5124 13.9852 11.4597C14.2485 11.407 14.5214 11.434 14.7694 11.5375C15.0173 11.6409 15.2293 11.8161 15.3784 12.0408C15.5275 12.2656 15.6071 12.5298 15.6071 12.8001C15.6071 13.1626 15.4642 13.5102 15.2096 13.7665C14.9551 14.0228 14.6099 14.1668 14.25 14.1668Z" fill="#5F165D"/>
</svg>
