<svg width="48" height="48" viewBox="0 0 48 48" fill="none" xmlns="http://www.w3.org/2000/svg">
<path d="M22 30C22.2652 30 22.5196 29.8946 22.7071 29.7071C22.8946 29.5196 23 29.2652 23 29V23C23 22.7348 22.8946 22.4804 22.7071 22.2929C22.5196 22.1054 22.2652 22 22 22C21.7348 22 21.4804 22.1054 21.2929 22.2929C21.1054 22.4804 21 22.7348 21 23V29C21 29.2652 21.1054 29.5196 21.2929 29.7071C21.4804 29.8946 21.7348 30 22 30ZM32 18H28V17C28 16.2044 27.6839 15.4413 27.1213 14.8787C26.5587 14.3161 25.7956 14 25 14H23C22.2044 14 21.4413 14.3161 20.8787 14.8787C20.3161 15.4413 20 16.2044 20 17V18H16C15.7348 18 15.4804 18.1054 15.2929 18.2929C15.1054 18.4804 15 18.7348 15 19C15 19.2652 15.1054 19.5196 15.2929 19.7071C15.4804 19.8946 15.7348 20 16 20H17V31C17 31.7956 17.3161 32.5587 17.8787 33.1213C18.4413 33.6839 19.2044 34 20 34H28C28.7956 34 29.5587 33.6839 30.1213 33.1213C30.6839 32.5587 31 31.7956 31 31V20H32C32.2652 20 32.5196 19.8946 32.7071 19.7071C32.8946 19.5196 33 19.2652 33 19C33 18.7348 32.8946 18.4804 32.7071 18.2929C32.5196 18.1054 32.2652 18 32 18ZM22 17C22 16.7348 22.1054 16.4804 22.2929 16.2929C22.4804 16.1054 22.7348 16 23 16H25C25.2652 16 25.5196 16.1054 25.7071 16.2929C25.8946 16.4804 26 16.7348 26 17V18H22V17ZM29 31C29 31.2652 28.8946 31.5196 28.7071 31.7071C28.5196 31.8946 28.2652 32 28 32H20C19.7348 32 19.4804 31.8946 19.2929 31.7071C19.1054 31.5196 19 31.2652 19 31V20H29V31ZM26 30C26.2652 30 26.5196 29.8946 26.7071 29.7071C26.8946 29.5196 27 29.2652 27 29V23C27 22.7348 26.8946 22.4804 26.7071 22.2929C26.5196 22.1054 26.2652 22 26 22C25.7348 22 25.4804 22.1054 25.2929 22.2929C25.1054 22.4804 25 22.7348 25 23V29C25 29.2652 25.1054 29.5196 25.2929 29.7071C25.4804 29.8946 25.7348 30 26 30Z" fill="#838688"/>
</svg>
