<svg width="16" height="14" viewBox="0 0 16 14" fill="none" xmlns="http://www.w3.org/2000/svg">
<g clip-path="url(#clip0_34_4727)">
<path d="M7.81235 2.37161L8.14604 2.87804L8.48018 2.3719C9.73338 0.473542 11.4854 0.0948945 12.9068 0.63139C14.3513 1.17655 15.5256 2.69253 15.5256 4.74398C15.5256 5.45358 15.1413 6.32286 14.4769 7.27687C13.8211 8.21854 12.9322 9.18711 12.0105 10.0844C11.0905 10.98 10.1477 11.795 9.38998 12.4306C9.11781 12.6589 8.87088 12.863 8.65674 13.0399C8.57238 13.1096 8.49312 13.1751 8.4194 13.2362C8.31868 13.3197 8.2257 13.3972 8.14387 13.4666C8.05764 13.3955 7.95939 13.3165 7.85326 13.2317C7.74673 13.1465 7.63003 13.0539 7.50367 12.9536C7.30574 12.7965 7.0841 12.6206 6.84065 12.4251C6.04834 11.7891 5.05951 10.9737 4.09341 10.0777C3.12538 9.17999 2.19086 8.21105 1.50119 7.26916C0.801562 6.31368 0.4 5.44728 0.4 4.74398C0.4 2.69125 1.65194 1.16897 3.19657 0.621516C4.72438 0.0800294 6.56742 0.482269 7.81235 2.37161Z" stroke="#5F165D" stroke-width="0.8"/>
</g>
<defs>
<clipPath id="clip0_34_4727">
<rect width="15.9256" height="14" fill="white"/>
</clipPath>
</defs>
</svg>
