<svg width="17" height="14" viewBox="0 0 17 14" fill="none" xmlns="http://www.w3.org/2000/svg">
<g clip-path="url(#clip0_48_4774)">
<path d="M7.95663 2.37161L8.29033 2.87804L8.62446 2.3719C9.87767 0.473542 11.6297 0.0948945 13.0511 0.63139C14.4956 1.17655 15.6699 2.69253 15.6699 4.74398C15.6699 5.45358 15.2856 6.32286 14.6212 7.27687C13.9654 8.21854 13.0765 9.18711 12.1547 10.0844C11.2348 10.98 10.292 11.795 9.53426 12.4306C9.26209 12.6589 9.01517 12.863 8.80102 13.0399C8.71667 13.1096 8.63741 13.1751 8.56368 13.2362C8.46297 13.3197 8.36998 13.3972 8.28816 13.4666C8.20193 13.3955 8.10368 13.3165 7.99755 13.2317C7.89102 13.1465 7.77432 13.0539 7.64796 12.9536C7.45003 12.7965 7.22839 12.6206 6.98494 12.4251C6.19263 11.7891 5.2038 10.9737 4.23769 10.0777C3.26967 9.17999 2.33515 8.21105 1.64547 7.26916C0.945849 6.31368 0.544287 5.44728 0.544287 4.74398C0.544287 2.69125 1.79623 1.16897 3.34086 0.621516C4.86867 0.0800294 6.7117 0.482269 7.95663 2.37161Z" stroke="#5F165D" stroke-width="0.8"/>
</g>
<defs>
<clipPath id="clip0_48_4774">
<rect width="15.9256" height="14" fill="white" transform="translate(0.144287)"/>
</clipPath>
</defs>
</svg>
