<svg width="16" height="14" viewBox="0 0 16 14" fill="none" xmlns="http://www.w3.org/2000/svg">
<g clip-path="url(#clip0_90_6616)">
<path d="M7.91367 2.55185L8.5473 3.55568L9.18178 2.55239C9.75337 1.64852 10.4176 1.14517 11.0561 0.916265C11.6948 0.687315 12.3577 0.714271 12.9685 0.954951C14.1945 1.43795 15.25 2.81176 15.25 4.74398C15.25 5.35254 14.9278 6.15226 14.3027 7.08924C13.6919 8.00481 12.8576 8.95535 11.9822 9.84498C11.1099 10.7314 10.2142 11.5398 9.49137 12.1728C9.23173 12.4002 8.99689 12.6028 8.79204 12.7795C8.71095 12.8494 8.63456 12.9153 8.56319 12.9771C8.55593 12.9834 8.54869 12.9896 8.54147 12.9959C8.53047 12.9867 8.51943 12.9775 8.50835 12.9682C8.40414 12.8813 8.29168 12.7881 8.17041 12.6876C7.98193 12.5315 7.77216 12.3577 7.53895 12.1622C6.78259 11.5284 5.84292 10.7194 4.92651 9.83218C4.00674 8.94173 3.12944 7.99061 2.48704 7.07478C1.82814 6.13542 1.49414 5.34114 1.49414 4.74398C1.49414 2.82352 2.61147 1.43888 3.93852 0.947896C5.22491 0.471959 6.80693 0.798491 7.91367 2.55185Z" stroke="#5F165D" stroke-width="1.5"/>
</g>
<defs>
<clipPath id="clip0_90_6616">
<rect width="15.2558" height="14" fill="white" transform="translate(0.744141)"/>
</clipPath>
</defs>
</svg>
