<svg width="32" height="32" viewBox="0 0 32 32" fill="none" xmlns="http://www.w3.org/2000/svg">
<rect x="0.5" y="0.5" width="31" height="31" rx="3.5" fill="#5F165D"/>
<rect x="0.5" y="0.5" width="31" height="31" rx="3.5" stroke="#5F165D"/>
<path d="M13.5881 22.4691C14.14 22.4691 14.5875 22.0264 14.5875 21.4803C14.5875 20.9343 14.14 20.4916 13.5881 20.4916C13.0361 20.4916 12.5887 20.9343 12.5887 21.4803C12.5887 22.0264 13.0361 22.4691 13.5881 22.4691Z" fill="white"/>
<path d="M19.6599 22.4691C20.2118 22.4691 20.6593 22.0264 20.6593 21.4803C20.6593 20.9343 20.2118 20.4916 19.6599 20.4916C19.1079 20.4916 18.6605 20.9343 18.6605 21.4803C18.6605 22.0264 19.1079 22.4691 19.6599 22.4691Z" fill="white"/>
<path d="M22.3604 10.7592C22.3191 10.7088 22.267 10.6681 22.2079 10.6399C22.1487 10.6118 22.084 10.597 22.0184 10.5966H14.711C14.4119 10.5966 14.2002 10.889 14.2936 11.1732C14.3528 11.3536 14.5212 11.4755 14.711 11.4755H21.4366L20.2506 16.0971H13.5881L11.5582 10.3901C11.5363 10.3226 11.4981 10.2614 11.4471 10.2116C11.3961 10.1619 11.3336 10.1251 11.2651 10.1044L9.44398 9.55071C9.38798 9.53369 9.32915 9.52774 9.27083 9.53322C9.21251 9.53869 9.15585 9.55547 9.10409 9.58261C8.99955 9.63741 8.9213 9.73106 8.88655 9.84295C8.8518 9.95483 8.86339 10.0758 8.91879 10.1792C8.97418 10.2826 9.06883 10.3601 9.18192 10.3944L10.7765 10.8778L12.8152 16.5981L12.0868 17.187L12.029 17.2441C11.8489 17.4495 11.7467 17.7107 11.7402 17.9826C11.7338 18.2545 11.8233 18.5202 11.9935 18.7338C12.1146 18.8795 12.2684 18.9951 12.4427 19.0714C12.617 19.1477 12.807 19.1826 12.9973 19.1733H20.4105C20.5283 19.1733 20.6413 19.127 20.7246 19.0445C20.8079 18.9621 20.8547 18.8504 20.8547 18.7338C20.8547 18.6173 20.8079 18.5055 20.7246 18.4231C20.6413 18.3407 20.5283 18.2944 20.4105 18.2944H12.9263C12.8751 18.2926 12.8253 18.2779 12.7816 18.2515C12.7379 18.2252 12.7018 18.1881 12.6768 18.144C12.6518 18.0998 12.6387 18.05 12.6388 17.9993C12.639 17.9487 12.6523 17.899 12.6775 17.8549L13.748 16.976H20.606C20.7086 16.9785 20.809 16.9457 20.89 16.8832C20.971 16.8207 21.0276 16.7324 21.0501 16.6333L22.4582 11.1327C22.4717 11.0672 22.4699 10.9995 22.4529 10.9348C22.436 10.87 22.4044 10.81 22.3604 10.7592Z" fill="white"/>
<path fill-rule="evenodd" clip-rule="evenodd" d="M22.0184 10.5966C22.084 10.597 22.1487 10.6118 22.2079 10.6399C22.267 10.6681 22.3191 10.7088 22.3604 10.7592C22.4044 10.81 22.436 10.87 22.4529 10.9348C22.4699 10.9995 22.4717 11.0672 22.4582 11.1327L21.0501 16.6333C21.0276 16.7324 20.971 16.8207 20.89 16.8832C20.809 16.9457 20.7086 16.9785 20.606 16.976H13.748L12.6775 17.8549C12.6523 17.899 12.639 17.9487 12.6388 17.9993C12.6387 18.05 12.6518 18.0998 12.6768 18.144C12.7018 18.1881 12.7379 18.2252 12.7816 18.2515C12.8253 18.2779 12.8751 18.2926 12.9263 18.2944H20.4105C20.5283 18.2944 20.6413 18.3407 20.7246 18.4231C20.8079 18.5055 20.8547 18.6173 20.8547 18.7338C20.8547 18.8504 20.8079 18.9621 20.7246 19.0445C20.6413 19.127 20.5283 19.1733 20.4105 19.1733H12.9973C12.807 19.1826 12.617 19.1477 12.4427 19.0714C12.2684 18.9951 12.1146 18.8795 11.9935 18.7338C11.8233 18.5202 11.7338 18.2545 11.7402 17.9826C11.7467 17.7107 11.8489 17.4495 12.029 17.2441L12.0868 17.187L12.8152 16.5981L10.7765 10.8778L9.18192 10.3944C9.06883 10.3601 8.97418 10.2826 8.91879 10.1792C8.86339 10.0758 8.8518 9.95483 8.88655 9.84295C8.9213 9.73106 8.99955 9.63741 9.10409 9.58261C9.15585 9.55547 9.21251 9.53869 9.27083 9.53322C9.32915 9.52774 9.38798 9.53369 9.44398 9.55071L11.2651 10.1044C11.3336 10.1251 11.3961 10.1619 11.4471 10.2116C11.4981 10.2614 11.5363 10.3226 11.5582 10.3901L13.5881 16.0971H20.2506L21.4366 11.4755H14.711C14.5212 11.4755 14.3528 11.3536 14.2936 11.1732C14.2002 10.889 14.4119 10.5966 14.711 10.5966H22.0184ZM21.1873 11.6732H14.709C14.4337 11.6732 14.1896 11.4964 14.1037 11.2349C13.9683 10.8228 14.2753 10.3988 14.709 10.3988H22.0197C22.1149 10.3995 22.2087 10.4209 22.2944 10.4617C22.3794 10.5021 22.4543 10.5604 22.514 10.6326C22.5768 10.7058 22.6221 10.7922 22.6464 10.8852C22.671 10.9791 22.6736 11.0772 22.654 11.1722L22.6531 11.1764L21.2451 16.6767M21.1873 11.6732L20.0903 15.8994H13.7346L11.7488 10.3305L11.7485 10.3295C11.7167 10.2316 11.6614 10.1429 11.5873 10.0707C11.5134 9.99866 11.4229 9.94535 11.3236 9.91534L9.5027 9.36169C9.42161 9.33704 9.33641 9.32843 9.25196 9.33635C9.16751 9.34428 9.08546 9.36858 9.01051 9.40787C8.85913 9.48723 8.74581 9.62284 8.69549 9.78486C8.64517 9.94688 8.66196 10.122 8.74217 10.2718C8.82239 10.4216 8.95945 10.5337 9.12321 10.5835L10.6176 11.0365L12.5837 16.5299L11.9526 17.0401L11.8827 17.1092L11.8781 17.1145C11.6674 17.3547 11.548 17.66 11.5404 17.978C11.5328 18.2959 11.6376 18.6065 11.8365 18.8562L11.8391 18.8594C11.98 19.0289 12.159 19.1634 12.3618 19.2522C12.5631 19.3403 12.7823 19.381 13.0021 19.371H20.4105C20.5813 19.371 20.7452 19.3039 20.8659 19.1844C20.9867 19.0649 21.0546 18.9028 21.0546 18.7338C21.0546 18.5648 20.9867 18.4027 20.8659 18.2832C20.7452 18.1637 20.5813 18.0966 20.4105 18.0966H12.9306C12.9147 18.0957 12.8992 18.0909 12.8856 18.0827C12.8712 18.074 12.8594 18.0619 12.8512 18.0473C12.843 18.0328 12.8387 18.0165 12.8387 17.9999C12.8387 17.9922 12.8397 17.9847 12.8415 17.9773L13.8201 17.1738H20.6038C20.7517 17.1768 20.8962 17.1292 21.0129 17.0391C21.1303 16.9486 21.2124 16.8204 21.2451 16.6767M14.7873 21.4803C14.7873 22.1356 14.2504 22.6668 13.5881 22.6668C12.9258 22.6668 12.3888 22.1356 12.3888 21.4803C12.3888 20.825 12.9258 20.2938 13.5881 20.2938C14.2504 20.2938 14.7873 20.825 14.7873 21.4803ZM20.8591 21.4803C20.8591 22.1356 20.3222 22.6668 19.6599 22.6668C18.9976 22.6668 18.4606 22.1356 18.4606 21.4803C18.4606 20.825 18.9976 20.2938 19.6599 20.2938C20.3222 20.2938 20.8591 20.825 20.8591 21.4803ZM13.5881 22.4691C14.14 22.4691 14.5875 22.0264 14.5875 21.4803C14.5875 20.9343 14.14 20.4916 13.5881 20.4916C13.0361 20.4916 12.5887 20.9343 12.5887 21.4803C12.5887 22.0264 13.0361 22.4691 13.5881 22.4691ZM19.6599 22.4691C20.2118 22.4691 20.6593 22.0264 20.6593 21.4803C20.6593 20.9343 20.2118 20.4916 19.6599 20.4916C19.1079 20.4916 18.6605 20.9343 18.6605 21.4803C18.6605 22.0264 19.1079 22.4691 19.6599 22.4691Z" fill="white"/>
</svg>
