<svg width="16" height="15" viewBox="0 0 16 15" fill="none" xmlns="http://www.w3.org/2000/svg">
<g clip-path="url(#clip0_128_2899)">
<path d="M7.91367 3.05185L8.5473 4.05568L9.18178 3.05239C9.75337 2.14852 10.4176 1.64517 11.0561 1.41626C11.6948 1.18732 12.3577 1.21427 12.9685 1.45495C14.1945 1.93795 15.25 3.31176 15.25 5.24398C15.25 5.85254 14.9278 6.65226 14.3027 7.58924C13.6919 8.50481 12.8576 9.45535 11.9822 10.345C11.1099 11.2314 10.2142 12.0398 9.49137 12.6728C9.23173 12.9002 8.99689 13.1028 8.79204 13.2795C8.71095 13.3494 8.63456 13.4153 8.56319 13.4771C8.55593 13.4834 8.54869 13.4896 8.54147 13.4959C8.53047 13.4867 8.51943 13.4775 8.50835 13.4682C8.40414 13.3813 8.29168 13.2881 8.17041 13.1876C7.98193 13.0315 7.77216 12.8577 7.53895 12.6622C6.78259 12.0284 5.84292 11.2194 4.92651 10.3322C4.00674 9.44173 3.12944 8.49061 2.48704 7.57478C1.82814 6.63542 1.49414 5.84114 1.49414 5.24398C1.49414 3.32352 2.61147 1.93888 3.93852 1.4479C5.22491 0.971959 6.80693 1.29849 7.91367 3.05185Z" fill="#5F165D" stroke="#5F165D" stroke-width="1.5"/>
</g>
<defs>
<clipPath id="clip0_128_2899">
<rect width="15.2558" height="14" fill="white" transform="translate(0.744141 0.5)"/>
</clipPath>
</defs>
</svg>
