<svg width="32" height="32" viewBox="0 0 32 32" fill="none" xmlns="http://www.w3.org/2000/svg">
<rect x="0.5" y="0.5" width="31" height="31" rx="3.5" fill="#5F165D"/>
<rect x="0.5" y="0.5" width="31" height="31" rx="3.5" stroke="#5F165D"/>
<path d="M13.5871 22.4691C14.1391 22.4691 14.5865 22.0264 14.5865 21.4803C14.5865 20.9343 14.1391 20.4916 13.5871 20.4916C13.0352 20.4916 12.5877 20.9343 12.5877 21.4803C12.5877 22.0264 13.0352 22.4691 13.5871 22.4691Z" fill="white"/>
<path d="M19.6589 22.4691C20.2109 22.4691 20.6583 22.0264 20.6583 21.4803C20.6583 20.9343 20.2109 20.4916 19.6589 20.4916C19.107 20.4916 18.6595 20.9343 18.6595 21.4803C18.6595 22.0264 19.107 22.4691 19.6589 22.4691Z" fill="white"/>
<path d="M22.3595 10.7592C22.3181 10.7088 22.266 10.6681 22.2069 10.6399C22.1478 10.6118 22.0831 10.597 22.0175 10.5966H14.7101C14.4109 10.5966 14.1992 10.889 14.2926 11.1732V11.1732C14.3518 11.3536 14.5202 11.4755 14.7101 11.4755H21.4356L20.2497 16.0971H13.5871L11.5573 10.3901C11.5353 10.3226 11.4972 10.2614 11.4461 10.2116C11.3951 10.1619 11.3326 10.1251 11.2641 10.1044L9.443 9.55071C9.38701 9.53369 9.32817 9.52774 9.26985 9.53322C9.21153 9.53869 9.15488 9.55547 9.10311 9.58261C8.99857 9.63741 8.92032 9.73106 8.88557 9.84295C8.85082 9.95483 8.86242 10.0758 8.91781 10.1792C8.9732 10.2826 9.06786 10.3601 9.18094 10.3944L10.7755 10.8778L12.8143 16.5981L12.0858 17.187L12.0281 17.2441C11.8479 17.4495 11.7458 17.7107 11.7393 17.9826C11.7328 18.2545 11.8224 18.5202 11.9925 18.7338C12.1136 18.8795 12.2674 18.9951 12.4417 19.0714C12.6161 19.1477 12.806 19.1826 12.9964 19.1732H20.4096C20.5274 19.1732 20.6403 19.127 20.7236 19.0445C20.8069 18.9621 20.8537 18.8504 20.8537 18.7338C20.8537 18.6173 20.8069 18.5055 20.7236 18.4231C20.6403 18.3407 20.5274 18.2944 20.4096 18.2944H12.9253C12.8741 18.2926 12.8243 18.2779 12.7806 18.2515C12.7369 18.2252 12.7008 18.1881 12.6758 18.144C12.6508 18.0998 12.6377 18.05 12.6379 17.9993C12.638 17.9487 12.6513 17.899 12.6766 17.8549L13.747 16.976H20.605C20.7077 16.9785 20.808 16.9457 20.889 16.8832C20.97 16.8207 21.0266 16.7324 21.0492 16.6333L22.4572 11.1327C22.4707 11.0672 22.4689 10.9995 22.452 10.9348C22.435 10.87 22.4034 10.81 22.3595 10.7592Z" fill="white"/>
<path fill-rule="evenodd" clip-rule="evenodd" d="M22.0175 10.5966C22.0831 10.597 22.1478 10.6118 22.2069 10.6399C22.266 10.6681 22.3181 10.7088 22.3595 10.7592C22.4034 10.81 22.435 10.87 22.452 10.9348C22.4689 10.9995 22.4707 11.0672 22.4572 11.1327L21.0492 16.6333C21.0266 16.7324 20.97 16.8207 20.889 16.8832C20.808 16.9457 20.7077 16.9785 20.605 16.976H13.747L12.6766 17.8549C12.6513 17.899 12.638 17.9487 12.6379 17.9993C12.6377 18.05 12.6508 18.0998 12.6758 18.144C12.7008 18.1881 12.7369 18.2252 12.7806 18.2515C12.8243 18.2779 12.8741 18.2926 12.9253 18.2944H20.4096C20.5274 18.2944 20.6403 18.3407 20.7236 18.4231C20.8069 18.5055 20.8537 18.6173 20.8537 18.7338C20.8537 18.8504 20.8069 18.9621 20.7236 19.0445C20.6403 19.127 20.5274 19.1732 20.4096 19.1732H12.9964C12.806 19.1826 12.6161 19.1477 12.4417 19.0714C12.2674 18.9951 12.1136 18.8795 11.9925 18.7338C11.8224 18.5202 11.7328 18.2545 11.7393 17.9826C11.7458 17.7107 11.8479 17.4495 12.0281 17.2441L12.0858 17.187L12.8143 16.5981L10.7755 10.8778L9.18094 10.3944C9.06786 10.3601 8.9732 10.2826 8.91781 10.1792C8.86242 10.0758 8.85082 9.95483 8.88557 9.84295C8.92032 9.73106 8.99857 9.63741 9.10311 9.58261C9.15488 9.55547 9.21153 9.53869 9.26985 9.53322C9.32817 9.52774 9.38701 9.53369 9.443 9.55071L11.2641 10.1044C11.3326 10.1251 11.3951 10.1619 11.4461 10.2116C11.4972 10.2614 11.5353 10.3226 11.5573 10.3901L13.5871 16.0971H20.2497L21.4356 11.4755H14.7101C14.5202 11.4755 14.3518 11.3536 14.2926 11.1732V11.1732C14.1992 10.889 14.4109 10.5966 14.7101 10.5966H22.0175ZM21.1864 11.6732H14.7081C14.4328 11.6732 14.1886 11.4964 14.1027 11.2349V11.2349C13.9673 10.8228 14.2743 10.3988 14.708 10.3988H22.0188C22.1139 10.3995 22.2077 10.4209 22.2935 10.4617C22.3784 10.5021 22.4534 10.5604 22.513 10.6326C22.5759 10.7058 22.6211 10.7922 22.6455 10.8852C22.67 10.9791 22.6726 11.0772 22.653 11.1722L22.6522 11.1764L21.2442 16.6767M21.1864 11.6732L20.0894 15.8994H13.7336L11.7478 10.3305L11.7475 10.3295C11.7157 10.2316 11.6604 10.1429 11.5864 10.0707C11.5124 9.99866 11.4219 9.94535 11.3226 9.91534L9.50172 9.36169C9.42063 9.33704 9.33543 9.32843 9.25098 9.33635C9.16653 9.34428 9.08449 9.36858 9.00953 9.40787C8.85815 9.48723 8.74483 9.62284 8.69451 9.78486C8.64419 9.94688 8.66098 10.122 8.7412 10.2718C8.82141 10.4216 8.95847 10.5337 9.12223 10.5835L10.6166 11.0365L12.5828 16.5299L11.9516 17.0401L11.8817 17.1092L11.8771 17.1145C11.6664 17.3547 11.547 17.66 11.5395 17.978C11.5319 18.2959 11.6366 18.6065 11.8356 18.8562L11.8382 18.8594C11.979 19.0289 12.158 19.1634 12.3609 19.2522C12.5621 19.3403 12.7813 19.381 13.0011 19.371H20.4096C20.5804 19.371 20.7442 19.3039 20.865 19.1844C20.9857 19.0649 21.0536 18.9028 21.0536 18.7338C21.0536 18.5648 20.9857 18.4027 20.865 18.2832C20.7442 18.1637 20.5804 18.0966 20.4096 18.0966H12.9296C12.9137 18.0957 12.8983 18.0909 12.8846 18.0827C12.8703 18.074 12.8584 18.0619 12.8502 18.0473C12.842 18.0328 12.8377 18.0165 12.8377 17.9999C12.8378 17.9922 12.8387 17.9847 12.8405 17.9773L13.8191 17.1738H20.6028C20.7507 17.1768 20.8952 17.1292 21.012 17.0391C21.1293 16.9486 21.2114 16.8204 21.2442 16.6767M14.7864 21.4803C14.7864 22.1356 14.2494 22.6668 13.5871 22.6668C12.9248 22.6668 12.3878 22.1356 12.3878 21.4803C12.3878 20.825 12.9248 20.2938 13.5871 20.2938C14.2494 20.2938 14.7864 20.825 14.7864 21.4803ZM20.8582 21.4803C20.8582 22.1356 20.3212 22.6668 19.6589 22.6668C18.9966 22.6668 18.4596 22.1356 18.4596 21.4803C18.4596 20.825 18.9966 20.2938 19.6589 20.2938C20.3212 20.2938 20.8582 20.825 20.8582 21.4803ZM13.5871 22.4691C14.1391 22.4691 14.5865 22.0264 14.5865 21.4803C14.5865 20.9343 14.1391 20.4916 13.5871 20.4916C13.0352 20.4916 12.5877 20.9343 12.5877 21.4803C12.5877 22.0264 13.0352 22.4691 13.5871 22.4691ZM19.6589 22.4691C20.2109 22.4691 20.6583 22.0264 20.6583 21.4803C20.6583 20.9343 20.2109 20.4916 19.6589 20.4916C19.107 20.4916 18.6595 20.9343 18.6595 21.4803C18.6595 22.0264 19.107 22.4691 19.6589 22.4691Z" fill="white"/>
</svg>
